<?xml version="1.0" encoding="utf-8"?>
<!-- Generator: Adobe Illustrator 22.0.1, SVG Export Plug-In . SVG Version: 6.00 Build 0)  -->
<svg version="1.1" id="Layer_1" xmlns="http://www.w3.org/2000/svg" xmlns:xlink="http://www.w3.org/1999/xlink" x="0px" y="0px"
	 viewBox="0 0 679 459" style="enable-background:new 0 0 679 459;" xml:space="preserve">
<style type="text/css">
	.st0{fill:#F2F2F2;}
	.st1{fill:#1A3347;}
	.st2{fill:url(#SVGID_1_);}
	.st3{fill:url(#SVGID_2_);}
	.st4{fill:url(#SVGID_3_);}
	.st5{fill:url(#SVGID_4_);}
	.st6{fill:url(#SVGID_5_);}
	.st7{fill:url(#SVGID_6_);}
	.st8{fill:url(#SVGID_7_);}
	.st9{fill:url(#SVGID_8_);}
	.st10{fill:url(#SVGID_9_);}
	.st11{fill:url(#SVGID_10_);}
	.st12{fill:url(#SVGID_11_);}
	.st13{fill:url(#SVGID_12_);}
	.st14{fill:url(#SVGID_13_);}
	.st15{fill:#FFFFFF;}
	.st16{fill:url(#SVGID_14_);}
	.st17{fill:url(#SVGID_15_);}
	.st18{fill:url(#SVGID_16_);}
	.st19{fill:url(#SVGID_17_);}
	.st20{fill:url(#SVGID_18_);}
	.st21{fill:url(#SVGID_19_);}
	.st22{fill:none;stroke:#C1272D;stroke-width:3.5;stroke-miterlimit:10;}
	.st23{fill:#C1272D;}
	.st24{fill:#00689B;}
	.st25{fill:#00C0F3;}
	.st26{fill:#0067C3;}
</style>
<g>
	<g>
		<g>
			<path class="st1" d="M281.1,206.6L269.4,243h-6.8l-8.2-25.4l-8.2,25.4h-6.8l-11.7-36.5h6.9l8.2,27l8.7-27h5.7l8.7,27l8.3-27
				H281.1z"/>
			<path class="st1" d="M303.7,235.7v5.3c-2.5,1.4-5.9,2.5-10.3,2.5c-5.4,0-12.7-2.2-12.7-13.8c0-8.2,3.3-14.4,12.2-14.4
				c8.5,0,12.2,6.4,12.2,13.2c0,1.2,0,2.3-0.1,3.4h-17.6c0.4,5.3,3.8,6,6.9,6C298.3,237.8,301.4,236.8,303.7,235.7z M287.5,227.3h11
				c-0.3-3.4-2-6.7-5.5-6.7C289.7,220.6,287.9,222.5,287.5,227.3z"/>
			<path class="st1" d="M332.7,229.1c0,13-8.6,14.4-12.3,14.4c-8.5,0-11.5-4.8-11.5-9.2v-29h6.6v10.4c1.5-0.3,3-0.4,4.5-0.4
				C328.2,215.3,332.7,220.2,332.7,229.1z M326.1,228.8c0-6.5-2.5-8.3-6.3-8.3c-1.7,0-3.1,0.2-4.3,0.4v13.9c0,2.3,2,3,4.9,3
				C324.7,237.8,326.1,235,326.1,228.8z"/>
			<path class="st1" d="M361.7,233.4c0,6.1-5.8,10.1-12.6,10.1c-5.2,0-9.1-1.3-12-3.1v-6.7c2.6,1.9,6,3.5,10.5,3.5
				c3.8,0,7.5-0.8,7.5-4.2c0-8.1-18.5-3.5-18.5-16.2c0-7.4,6.2-10.6,13-10.6c3.7,0,6.9,1,9.8,2.5v6.4c-2.2-1.5-5.3-2.8-9-2.8
				c-3.4,0-7.2,1-7.2,4.3C343.2,223.2,361.7,218.5,361.7,233.4z"/>
			<path class="st1" d="M366.3,212v-6h6.7v6H366.3z M366.4,243v-27.3h6.6V243H366.4z"/>
			<path class="st1" d="M400.3,224.3v19.4c0,3.7-1.6,10-12.3,10c-3.3,0-5.9-0.5-7.9-1.1v-5.9c1.6,0.5,4,1.1,7.1,1.1
				c6.5,0,6.5-2.4,6.5-4.2v-1.5c-1.4,0.3-2.7,0.4-4.2,0.4c-7.9,0-12.3-4.8-12.3-13.3c0-12.6,8.3-14,11.9-14
				C397.4,215.3,400.3,220,400.3,224.3z M393.8,224.2c0-2.5-2.1-3.1-4.6-3.1c-3.3,0-5.3,2.1-5.3,8.3c0,6.6,2.3,7.9,6,7.9
				c1.5,0,2.8-0.2,3.9-0.4V224.2z"/>
			<path class="st1" d="M429.2,226.6V243h-6.5v-17c0-2.4-0.5-5-6.7-5c-1.8,0-3.3,0.3-4.4,0.8V243h-6.6v-37.7h6.6v10.9
				c1.5-0.6,3.3-0.9,5.5-0.9C424.7,215.3,429.2,219.5,429.2,226.6z"/>
			<path class="st1" d="M442,221.4v13.5c0,2.4,0.9,3,3.3,3c1.3,0,2.2-0.2,3.1-0.6v5.4c-1.3,0.5-2.7,0.8-4.3,0.8
				c-5.4,0-8.7-3.4-8.7-9v-13.1h-4.6v-5.6h4.6v-8.1h6.6v8.1h6.5v5.6H442z"/>
			<path class="st1" d="M461.4,243H455V237h6.4V243z"/>
			<g>
				<g>
					<path class="st26" d="M478.1,221.4v13.5c0,2.4,0.9,3,3.3,3c1.3,0,2.2-0.2,3.1-0.6v5.4c-1.3,0.5-2.7,0.8-4.3,0.8
						c-5.4,0-8.7-3.4-8.7-9v-13.1h-4.6v-5.6h4.6v-8.1h6.6v8.1h6.5v5.6H478.1z"/>
				</g>
			</g>
			<g>
				<g>
					<path class="st26" d="M509.9,235.7v5.3c-2.5,1.4-5.9,2.5-10.3,2.5c-5.4,0-12.7-2.2-12.7-13.8c0-8.2,3.3-14.4,12.2-14.4
						c8.5,0,12.2,6.4,12.2,13.2c0,1.2,0,2.3-0.1,3.4h-17.6c0.4,5.3,3.8,6,6.9,6C504.4,237.8,507.6,236.8,509.9,235.7z M493.6,227.3
						h11c-0.3-3.4-2-6.7-5.5-6.7C495.9,220.6,494,222.5,493.6,227.3z"/>
				</g>
			</g>
			<g>
				<g>
					<path class="st26" d="M527.9,237.8c2.5,0,4.8-0.5,6.8-1.4v5.5c-2.4,0.9-5,1.5-7.9,1.5c-8.3,0-12.9-5-12.9-14.1
						c0-9.1,4.6-14.1,12.9-14.1c2.9,0,5.5,0.6,7.9,1.5v5.5c-2-0.8-4.3-1.3-6.8-1.3c-4.6,0-7.4,1.4-7.4,8.4
						C520.5,236.4,523.3,237.8,527.9,237.8z"/>
				</g>
			</g>
			<g>
				<g>
					<path class="st26" d="M562.6,226.6V243h-6.5v-17c0-2.4-0.5-5-6.7-5c-1.8,0-3.3,0.3-4.4,0.8V243h-6.6v-37.7h6.6v10.9
						c1.5-0.6,3.3-0.9,5.5-0.9C558.1,215.3,562.6,219.5,562.6,226.6z"/>
				</g>
			</g>
		</g>
	</g>
	<g>
		<path class="st26" d="M173.4,205.9c-13,0-23.6,10.6-23.6,23.6s10.6,23.6,23.6,23.6c13,0,23.6-10.6,23.6-23.6
			S186.4,205.9,173.4,205.9z M168.9,210.5c-2.7,2.1-4.8,4.7-6.4,7.6c-1.3-0.6-2.4-1.2-3.5-1.9C161.7,213.4,165.2,211.4,168.9,210.5z
			 M157.3,218.4c1.2,0.9,2.6,1.7,4.1,2.3c-0.9,2.4-1.4,4.8-1.5,7.4h-6C154.2,224.6,155.3,221.3,157.3,218.4z M157.3,240.6
			c-2-2.9-3.2-6.2-3.4-9.7h6c0.2,2.5,0.8,4.9,1.8,7.3C160.1,238.8,158.6,239.7,157.3,240.6z M159.1,242.8c1.2-0.8,2.5-1.5,3.9-2.1
			c1.9,3.3,4.5,6.1,7.7,8.2C166.2,248.2,162.1,246.1,159.1,242.8z M172,246.4c-2.6-1.7-4.7-4-6.3-6.6c2-0.6,4.1-0.9,6.3-1V246.4z
			 M172,235.9c-2.6,0.1-5.2,0.5-7.6,1.3c-0.9-2-1.4-4.2-1.6-6.3h9.2V235.9z M172,228.1h-9.3c0.1-2.2,0.5-4.4,1.3-6.4
			c2.5,0.8,5.2,1.3,8,1.4V228.1z M172,220.3c-2.3-0.1-4.6-0.5-6.8-1.2c1.6-3,3.9-5.5,6.8-7.4V220.3z M189.4,218.4
			c2,2.9,3.2,6.2,3.4,9.7h-5.4c-0.1-2.7-0.6-5.2-1.6-7.7C187.2,219.9,188.3,219.2,189.4,218.4z M187.7,216.2
			c-0.9,0.6-1.9,1.2-2.9,1.7c-1.5-2.8-3.5-5.2-6-7.2C182.2,211.7,185.2,213.6,187.7,216.2z M174.8,211.3c3.1,1.9,5.6,4.5,7.3,7.6
			c-2.3,0.8-4.8,1.2-7.3,1.3V211.3z M174.8,223.1c3-0.1,5.9-0.7,8.5-1.6c0.8,2.1,1.3,4.3,1.4,6.6h-9.9V223.1z M174.8,230.9h9.9
			c-0.2,2.2-0.8,4.4-1.7,6.5c-2.6-0.9-5.3-1.3-8.2-1.5V230.9z M174.8,238.7c2.4,0.1,4.7,0.5,6.9,1.2c-1.7,2.8-4.1,5.2-6.9,6.9V238.7
			z M177,248.7c3-2,5.5-4.7,7.3-7.8c1.2,0.5,2.3,1.2,3.4,1.9C184.8,245.8,181,247.9,177,248.7z M189.4,240.6
			c-1.2-0.8-2.4-1.6-3.8-2.2c1-2.4,1.7-4.9,1.9-7.5h5.4C192.6,234.4,191.4,237.7,189.4,240.6z"/>
		<path class="st26" d="M212.9,224c-6.1-6.1-15.6-15.6-19-18.4c-5.6-4.9-12.9-7.9-20.9-7.9v-9.1c0-1.2-1-2.1-2.2-2.1l0,0
			c-9.6,0.5-18.7,4.2-25.9,10.5c-5.8,4.8-23.2,22.6-25.2,24.6c-4.3,4.4-4.3,11.3,0,15.7c2,2,19.4,19.8,25.2,24.6
			c7.3,6.3,16.4,10,25.9,10.5c0,0,0,0,0,0c1.2,0.1,2.2-0.9,2.2-2.1v-9.1c8,0,15.3-3,20.9-7.9c2.1-1.7,6.4-5.8,10.8-10.1l8.4-8.5
			c1.3-1.4,2.1-3.2,2.1-5.3C215.1,227.3,214.3,225.4,212.9,224z M173,251.8v-0.5l-2.2-0.3l-0.5,0.6c0.2,0,0.3,0,0.5,0.1v9.5
			c-7.1-0.5-13.6-3.4-18.7-7.8c-5.3-4.3-24.4-23.9-24.4-23.9l0,0l0,0c0,0,19.2-19.6,24.4-23.9c5.1-4.5,11.6-7.3,18.7-7.8v9.5
			c-0.2,0-0.4,0.1-0.6,0.1l0.1,0l2.7,2.6v-2.8c12.3,0,22.2,10,22.2,22.3S185.2,251.8,173,251.8z"/>
	</g>
</g>
</svg>
