<?xml version="1.0" encoding="utf-8"?>
<!-- Generator: Adobe Illustrator 22.0.1, SVG Export Plug-In . SVG Version: 6.00 Build 0)  -->
<svg version="1.1" id="Layer_1" xmlns="http://www.w3.org/2000/svg" xmlns:xlink="http://www.w3.org/1999/xlink" x="0px" y="0px"
	 viewBox="0 0 679 459" style="enable-background:new 0 0 679 459;" xml:space="preserve">
<style type="text/css">
	.st0{fill:#F2F2F2;}
	.st1{fill:#1A3347;}
	.st2{fill:url(#SVGID_1_);}
	.st3{fill:url(#SVGID_2_);}
	.st4{fill:url(#SVGID_3_);}
	.st5{fill:url(#SVGID_4_);}
	.st6{fill:url(#SVGID_5_);}
	.st7{fill:url(#SVGID_6_);}
	.st8{fill:url(#SVGID_7_);}
	.st9{fill:url(#SVGID_8_);}
	.st10{fill:url(#SVGID_9_);}
	.st11{fill:url(#SVGID_10_);}
	.st12{fill:url(#SVGID_11_);}
	.st13{fill:url(#SVGID_12_);}
	.st14{fill:url(#SVGID_13_);}
	.st15{fill:#FFFFFF;}
	.st16{fill:url(#SVGID_14_);}
	.st17{fill:url(#SVGID_15_);}
	.st18{fill:url(#SVGID_16_);}
	.st19{fill:url(#SVGID_17_);}
	.st20{fill:url(#SVGID_18_);}
	.st21{fill:url(#SVGID_19_);}
	.st22{fill:none;stroke:#C1272D;stroke-width:3.5;stroke-miterlimit:10;}
	.st23{fill:#C1272D;}
	.st24{fill:#00689B;}
	.st25{fill:#00C0F3;}
	.st26{fill:#0067C3;}
</style>
<rect x="-9" y="-9" class="st1" width="699" height="475"/>
<g>
	<g>
		<linearGradient id="SVGID_1_" gradientUnits="userSpaceOnUse" x1="175.4219" y1="202.3104" x2="246.1719" y2="249.5604">
			<stop  offset="0" style="stop-color:#73CDF4"/>
			<stop  offset="1" style="stop-color:#00B9ED"/>
		</linearGradient>
		<path class="st2" d="M204.9,258.8c-9.5,0-19.1-3.6-26.4-10.9l2.9-2.9c12.9,12.9,34,12.9,46.9,0c12.9-12.9,12.9-34,0-46.9l2.9-2.9
			c14.5,14.5,14.5,38.2,0,52.7C224,255.2,214.4,258.8,204.9,258.8z"/>
		<g>
			<linearGradient id="SVGID_2_" gradientUnits="userSpaceOnUse" x1="187.317" y1="184.4992" x2="258.067" y2="231.7492">
				<stop  offset="0" style="stop-color:#73CDF4"/>
				<stop  offset="1" style="stop-color:#00B9ED"/>
			</linearGradient>
			<path class="st3" d="M219.4,212.3l-3.8-1.5c1.5-3.9,3.8-7.3,6.8-10.2l2.9,3C222.7,206,220.7,209,219.4,212.3z"/>
			<linearGradient id="SVGID_3_" gradientUnits="userSpaceOnUse" x1="173.7215" y1="204.8564" x2="244.4715" y2="252.1064">
				<stop  offset="0" style="stop-color:#73CDF4"/>
				<stop  offset="1" style="stop-color:#00B9ED"/>
			</linearGradient>
			<path class="st4" d="M221.8,241.9c-2.8-2.9-5-6.3-6.4-10.1l3.9-1.4c1.2,3.3,3.1,6.2,5.5,8.7L221.8,241.9z"/>
			<linearGradient id="SVGID_4_" gradientUnits="userSpaceOnUse" x1="164.1214" y1="219.2312" x2="234.8714" y2="266.4812">
				<stop  offset="0" style="stop-color:#73CDF4"/>
				<stop  offset="1" style="stop-color:#00B9ED"/>
			</linearGradient>
			<path class="st5" d="M187.3,242.5l-2.9-3c2.7-2.6,4.8-5.9,6.1-9.4l3.9,1.4C192.9,235.7,190.4,239.5,187.3,242.5z"/>
			<linearGradient id="SVGID_5_" gradientUnits="userSpaceOnUse" x1="177.7132" y1="198.8795" x2="248.4632" y2="246.1295">
				<stop  offset="0" style="stop-color:#73CDF4"/>
				<stop  offset="1" style="stop-color:#00B9ED"/>
			</linearGradient>
			<path class="st6" d="M190.3,212.2c-1.4-3.5-3.6-6.6-6.4-9.2l2.8-3c3.2,3,5.8,6.7,7.4,10.7L190.3,212.2z"/>
		</g>
		<linearGradient id="SVGID_6_" gradientUnits="userSpaceOnUse" x1="176.4956" y1="200.7026" x2="247.2456" y2="247.9526">
			<stop  offset="0" style="stop-color:#73CDF4"/>
			<stop  offset="1" style="stop-color:#00B9ED"/>
		</linearGradient>
		<path class="st7" d="M230.4,222.9c-5.3-6.8-15.2-11-25.6-11c-10.4,0-20.2,4.2-25.6,11l-3.2-2.6c6.2-7.9,17-12.5,28.8-12.5
			c11.9,0,22.7,4.7,28.9,12.6L230.4,222.9z"/>
		<linearGradient id="SVGID_7_" gradientUnits="userSpaceOnUse" x1="174.749" y1="203.3179" x2="245.499" y2="250.5679">
			<stop  offset="0" style="stop-color:#73CDF4"/>
			<stop  offset="1" style="stop-color:#00B9ED"/>
		</linearGradient>
		<path class="st8" d="M204.9,235.4c-11.9,0-22.7-4.7-28.9-12.6l3.2-2.5c5.3,6.8,15.2,11,25.6,11c10.4,0,20.2-4.2,25.6-11l3.2,2.6
			C227.5,230.7,216.8,235.4,204.9,235.4z"/>
		<g>
			<linearGradient id="SVGID_8_" gradientUnits="userSpaceOnUse" x1="184.3559" y1="188.933" x2="255.1059" y2="236.183">
				<stop  offset="0" style="stop-color:#73CDF4"/>
				<stop  offset="1" style="stop-color:#00B9ED"/>
			</linearGradient>
			<rect x="202.8" y="194.3" class="st9" width="4.1" height="16.6"/>
			<linearGradient id="SVGID_9_" gradientUnits="userSpaceOnUse" x1="163.2106" y1="220.595" x2="233.9606" y2="267.8449">
				<stop  offset="0" style="stop-color:#73CDF4"/>
				<stop  offset="1" style="stop-color:#00B9ED"/>
			</linearGradient>
			<rect x="202.8" y="232.1" class="st10" width="4.1" height="32.6"/>
		</g>
		<linearGradient id="SVGID_10_" gradientUnits="userSpaceOnUse" x1="155.6887" y1="231.8579" x2="226.4387" y2="279.1079">
			<stop  offset="0" style="stop-color:#73CDF4"/>
			<stop  offset="1" style="stop-color:#00B9ED"/>
		</linearGradient>
		<rect x="189.7" y="262.6" class="st11" width="30.3" height="4.1"/>
		<linearGradient id="SVGID_11_" gradientUnits="userSpaceOnUse" x1="175.6236" y1="202.0082" x2="246.3736" y2="249.2582">
			<stop  offset="0" style="stop-color:#73CDF4"/>
			<stop  offset="1" style="stop-color:#00B9ED"/>
		</linearGradient>
		<path class="st12" d="M204.9,192.2c-16.2,0-29.3,13.1-29.3,29.3c0,14,9.9,25.8,23.1,28.6v-4.2c-10.9-2.8-19-12.7-19-24.4
			c0-13.9,11.3-25.2,25.2-25.2c13.9,0,25.2,11.3,25.2,25.2s-11.3,25.2-25.2,25.2c-0.7,0-1.4,0-2.1-0.1v4.1c0.7,0,1.4,0.1,2.1,0.1
			c16.2,0,29.3-13.1,29.3-29.3S221,192.2,204.9,192.2z"/>
		<linearGradient id="SVGID_12_" gradientUnits="userSpaceOnUse" x1="175.6223" y1="202.0102" x2="246.3723" y2="249.2602">
			<stop  offset="0" style="stop-color:#73CDF4"/>
			<stop  offset="1" style="stop-color:#00B9ED"/>
		</linearGradient>
		<circle class="st13" cx="204.9" cy="221.5" r="5.2"/>
		<linearGradient id="SVGID_13_" gradientUnits="userSpaceOnUse" x1="175.6223" y1="202.0102" x2="246.3723" y2="249.2602">
			<stop  offset="0" style="stop-color:#73CDF4"/>
			<stop  offset="1" style="stop-color:#00B9ED"/>
		</linearGradient>
		<path class="st14" d="M204.9,207.8c-7.6,0-13.8,6.2-13.8,13.8s6.2,13.8,13.8,13.8c7.6,0,13.8-6.2,13.8-13.8
			S212.5,207.8,204.9,207.8z M204.9,231.3c-5.4,0-9.8-4.4-9.8-9.8s4.4-9.8,9.8-9.8c5.4,0,9.8,4.4,9.8,9.8S210.3,231.3,204.9,231.3z"
			/>
		<circle class="st1" cx="207.6" cy="219" r="2.1"/>
	</g>
	<g>
		<path class="st15" d="M290.9,210.3l-3.6,25.1c-0.3,2.4-1.5,3.1-3.5,3.1h-2.1c-1.7,0-2.7-0.8-3.2-3.1l-3-12.7
			c-0.1-0.3-0.1-0.4-0.2-0.4c-0.2,0-0.2,0.1-0.3,0.4l-3,12.7c-0.5,2.2-1.5,3.1-3.2,3.1h-2.1c-2,0-3.1-0.7-3.5-3.1l-3.6-25.1
			c0,0,0-0.1,0-0.1c0-0.3,0.3-0.5,0.7-0.5h4.1c0.3,0,0.6,0.3,0.7,0.7l2.8,23c0,0.3,0,0.6,0.2,0.6s0.2-0.2,0.2-0.6l3.3-13.5
			c0.2-0.9,0.8-1.7,2.4-1.7h2.7c1.7,0,2.2,0.8,2.4,1.7l3.3,13.5c0.1,0.3,0.1,0.6,0.2,0.6s0.2-0.2,0.2-0.6l2.8-23
			c0-0.4,0.3-0.7,0.7-0.7h4.1c0.3,0,0.7,0.2,0.7,0.5C290.9,210.2,290.9,210.2,290.9,210.3z"/>
		<path class="st15" d="M310.3,229.1h-12.5v0.1c0,2.2,0.9,4.9,4.6,4.9c2.8,0,5.5-0.2,7.1-0.4c0,0,0.1,0,0.1,0c0.4,0,0.7,0.2,0.7,0.6
			v2.5c0,0.6-0.1,0.9-0.8,1c-2.5,0.5-4,0.7-7.5,0.7c-3.8,0-9.3-2.1-9.3-9.7V226c0-6,3.3-9.8,9.2-9.8c5.9,0,9.2,4,9.2,9.8v2.2
			C311,228.8,310.8,229.1,310.3,229.1z M305.9,225.4c0-3-1.7-4.7-4-4.7s-4.1,1.7-4.1,4.7v0.2h8.2V225.4z"/>
		<path class="st15" d="M323.2,238.5c-2.5,0-5.3-0.4-7.7-1c-0.9-0.2-1-0.5-1-1v-26.8c0-0.4,0.3-0.8,0.8-0.8h3.5
			c0.4,0,0.8,0.3,0.8,0.8v6.8c1.4-0.2,2.8-0.3,3.7-0.3c6.2,0,9.2,3.7,9.2,9.7v3C332.4,234.9,329.4,238.5,323.2,238.5z M327.3,225.9
			c0-3.2-0.8-5.5-4.1-5.5c-0.9,0-2.6,0.1-3.7,0.3v13.4c0.7,0.2,2.3,0.3,3.7,0.3c3.3,0,4.1-2.3,4.1-5.5V225.9z"/>
		<linearGradient id="SVGID_14_" gradientUnits="userSpaceOnUse" x1="332.4882" y1="205.9699" x2="383.4882" y2="284.4699">
			<stop  offset="0" style="stop-color:#73CDF4"/>
			<stop  offset="1" style="stop-color:#00B9ED"/>
		</linearGradient>
		<path class="st16" d="M343.2,238.5c-2.9,0-5-0.3-6.8-0.7c-0.4-0.1-0.7-0.3-0.7-0.8v-2.8c0-0.4,0.3-0.7,0.7-0.7c0,0,0,0,0.1,0
			c1.5,0.2,5.4,0.4,6.8,0.4c3.4,0,4.5-1.2,4.5-3.5c0-1.5-0.7-2.3-3.3-3.8l-5.1-3c-3.6-2.1-4.5-4.3-4.5-7c0-4.2,2.5-7.3,9.6-7.3
			c2.5,0,6.1,0.4,7.4,0.7c0.4,0.1,0.7,0.3,0.7,0.7v2.8c0,0.4-0.3,0.7-0.7,0.7c0,0,0,0-0.1,0c-2.5-0.2-5.1-0.4-7.6-0.4
			c-2.8,0-4,1-4,2.7c0,1.3,0.7,2,3.2,3.4l4.6,2.6c4.2,2.3,5.3,4.8,5.3,7.8C353.4,234.4,350.9,238.5,343.2,238.5z"/>
		<linearGradient id="SVGID_15_" gradientUnits="userSpaceOnUse" x1="343.3813" y1="198.8929" x2="394.3813" y2="277.3929">
			<stop  offset="0" style="stop-color:#73CDF4"/>
			<stop  offset="1" style="stop-color:#00B9ED"/>
		</linearGradient>
		<path class="st17" d="M361.2,213.6h-3.7c-0.4,0-0.8-0.3-0.8-0.8v-3.4c0-0.4,0.4-0.8,0.8-0.8h3.7c0.4,0,0.8,0.3,0.8,0.8v3.4
			C361.9,213.3,361.6,213.6,361.2,213.6z M361,238.2h-3.5c-0.4,0-0.8-0.4-0.8-0.8v-20.1c0-0.4,0.3-0.8,0.8-0.8h3.5
			c0.4,0,0.8,0.3,0.8,0.8v20.1C361.8,237.8,361.5,238.2,361,238.2z"/>
		<linearGradient id="SVGID_16_" gradientUnits="userSpaceOnUse" x1="351.8185" y1="193.4113" x2="402.8185" y2="271.9113">
			<stop  offset="0" style="stop-color:#73CDF4"/>
			<stop  offset="1" style="stop-color:#00B9ED"/>
		</linearGradient>
		<path class="st18" d="M384.2,220l-1.3,0.5c0.6,0.9,1,1.7,1,3.1v0.3c0,4.8-3.3,7-9.1,7c-2,0-3.4-0.3-4.2-0.7
			c-0.5,0.3-0.7,0.7-0.7,1c0,0.8,0.4,1.1,1.3,1.3l4.5,1.1c5.2,1.2,8.6,2,8.6,6.2v0.3c0,3.9-2.9,6-9.4,6c-6.2,0-9.5-2.3-9.5-6.4v-0.3
			c0-1.6,0.7-3.1,2-4.2c-1.1-0.8-1.7-2.2-1.7-3.5v0c0-1.2,0.5-2.4,1.5-3.1c-1.2-1.2-1.6-2.6-1.6-4.5v-0.3c0-3.8,2.5-7.1,9.2-7.1h9
			c0.6,0,1,0.5,1,1v1.6C384.9,219.8,384.7,219.8,384.2,220z M379.4,239.7c0-0.8-0.5-1.3-4.5-2.3l-3.4-0.8c-0.6,0.8-1,1.3-1,2.7v0.3
			c0,1.6,1,2.5,4.6,2.5c3.7,0,4.3-0.8,4.3-2.2V239.7z M378.9,223.7c0-1.8-0.8-3.3-4.1-3.3c-3.3,0-4.2,1.5-4.2,3.3v0.3
			c0,1.4,0.6,3,4.2,3c3.2,0,4.1-1.1,4.1-3V223.7z"/>
		<linearGradient id="SVGID_17_" gradientUnits="userSpaceOnUse" x1="366.7401" y1="183.7171" x2="417.7401" y2="262.2171">
			<stop  offset="0" style="stop-color:#73CDF4"/>
			<stop  offset="1" style="stop-color:#00B9ED"/>
		</linearGradient>
		<path class="st19" d="M404.5,238.2h-3.5c-0.4,0-0.8-0.4-0.8-0.8v-12.7c0-3.3-0.6-4.2-3.2-4.2c-1.3,0-2.8,0.5-4.5,1.3v15.5
			c0,0.4-0.3,0.8-0.8,0.8h-3.5c-0.4,0-0.8-0.4-0.8-0.8v-27.7c0-0.4,0.3-0.8,0.8-0.8h3.5c0.4,0,0.8,0.3,0.8,0.8v8
			c1.5-0.9,3.1-1.4,5.8-1.4c5.3,0,6.9,3.8,6.9,8.5v12.7C405.2,237.8,404.9,238.2,404.5,238.2z"/>
		<linearGradient id="SVGID_18_" gradientUnits="userSpaceOnUse" x1="382.3828" y1="173.5543" x2="433.3828" y2="252.0543">
			<stop  offset="0" style="stop-color:#73CDF4"/>
			<stop  offset="1" style="stop-color:#00B9ED"/>
		</linearGradient>
		<path class="st20" d="M420.7,238.3c-0.9,0.2-1.8,0.3-2.6,0.3c-4.3,0-6.1-1-6.1-6.1v-12.1l-3.6-0.5c-0.4-0.1-0.8-0.3-0.8-0.8v-1.7
			c0-0.4,0.3-0.8,0.8-0.8h3.6v-3.2c0-0.4,0.3-0.7,0.8-0.8l3.6-0.6c0,0,0.1,0,0.2,0c0.3,0,0.6,0.2,0.6,0.6v4h3.5
			c0.4,0,0.8,0.3,0.8,0.8v2.3c0,0.4-0.3,0.8-0.8,0.8H417v12.1c0,1.9,0.1,2.2,1.5,2.2h2c0.5,0,0.8,0.2,0.8,0.6v2.4
			C421.4,237.9,421.2,238.2,420.7,238.3z"/>
		<linearGradient id="SVGID_19_" gradientUnits="userSpaceOnUse" x1="385.1187" y1="171.7768" x2="436.1187" y2="250.2768">
			<stop  offset="0" style="stop-color:#73CDF4"/>
			<stop  offset="1" style="stop-color:#00B9ED"/>
		</linearGradient>
		<path class="st21" d="M428.1,238.2h-3.4c-0.4,0-0.8-0.3-0.8-0.8v-4.3c0-0.4,0.3-0.7,0.8-0.7h3.4c0.4,0,0.8,0.3,0.8,0.7v4.3
			C428.9,237.9,428.5,238.2,428.1,238.2z"/>
		<path class="st15" d="M444.3,238.3c-0.9,0.2-1.8,0.3-2.6,0.3c-4.3,0-6.1-1-6.1-6.1v-12.1l-3.6-0.5c-0.4-0.1-0.8-0.3-0.8-0.8v-1.7
			c0-0.4,0.3-0.8,0.8-0.8h3.6v-3.2c0-0.4,0.3-0.7,0.8-0.8l3.6-0.6c0,0,0.1,0,0.2,0c0.3,0,0.6,0.2,0.6,0.6v4h3.5
			c0.4,0,0.8,0.3,0.8,0.8v2.3c0,0.4-0.3,0.8-0.8,0.8h-3.5v12.1c0,1.9,0.1,2.2,1.5,2.2h2c0.5,0,0.8,0.2,0.8,0.6v2.4
			C445,237.9,444.8,238.2,444.3,238.3z"/>
		<path class="st15" d="M464.5,229.1h-12.5v0.1c0,2.2,0.9,4.9,4.6,4.9c2.8,0,5.5-0.2,7.1-0.4c0,0,0.1,0,0.1,0c0.4,0,0.7,0.2,0.7,0.6
			v2.5c0,0.6-0.1,0.9-0.8,1c-2.5,0.5-4,0.7-7.5,0.7c-3.8,0-9.3-2.1-9.3-9.7V226c0-6,3.3-9.8,9.2-9.8c5.9,0,9.2,4,9.2,9.8v2.2
			C465.2,228.8,465,229.1,464.5,229.1z M460.1,225.4c0-3-1.7-4.7-4-4.7s-4.1,1.7-4.1,4.7v0.2h8.2V225.4z"/>
		<path class="st15" d="M481.6,238c-0.9,0.2-2.6,0.5-5,0.5c-5,0-8.8-3.1-8.8-9.3v-3.6c0-6.3,3.8-9.3,8.8-9.3c2.3,0,4.1,0.3,5,0.5
			c0.7,0.2,0.8,0.4,0.8,1v2.5c0,0.4-0.3,0.6-0.7,0.6c0,0-0.1,0-0.1,0c-1.5-0.2-2.5-0.3-5-0.3c-1.8,0-3.7,1-3.7,5v3.6
			c0,4,1.9,5,3.7,5c2.5,0,3.4-0.1,5-0.3c0,0,0.1,0,0.1,0c0.4,0,0.7,0.2,0.7,0.6v2.5C482.4,237.6,482.2,237.9,481.6,238z"/>
		<path class="st15" d="M502.7,238.2h-3.5c-0.4,0-0.8-0.4-0.8-0.8v-12.7c0-3.3-0.6-4.2-3.2-4.2c-1.3,0-2.8,0.5-4.5,1.3v15.5
			c0,0.4-0.3,0.8-0.8,0.8h-3.5c-0.4,0-0.8-0.4-0.8-0.8v-27.7c0-0.4,0.3-0.8,0.8-0.8h3.5c0.4,0,0.8,0.3,0.8,0.8v8
			c1.5-0.9,3.1-1.4,5.8-1.4c5.3,0,6.9,3.8,6.9,8.5v12.7C503.4,237.8,503.1,238.2,502.7,238.2z"/>
	</g>
</g>
</svg>
